G04 #@! TF.GenerationSoftware,KiCad,Pcbnew,9.0.8*
G04 #@! TF.CreationDate,2026-06-06T08:42:18-05:00*
G04 #@! TF.ProjectId,Ribbon Adaptor,52696262-6f6e-4204-9164-6170746f722e,rev?*
G04 #@! TF.SameCoordinates,Original*
G04 #@! TF.FileFunction,Paste,Top*
G04 #@! TF.FilePolarity,Positive*
%FSLAX46Y46*%
G04 Gerber Fmt 4.6, Leading zero omitted, Abs format (unit mm)*
G04 Created by KiCad (PCBNEW 9.0.8) date 2026-06-06 08:42:18*
%MOMM*%
%LPD*%
G01*
G04 APERTURE LIST*
%ADD10C,0.010000*%
%ADD11R,0.300000X1.400000*%
G04 APERTURE END LIST*
D10*
G04 #@! TO.C,J2*
X119800000Y-62000000D02*
X118550000Y-62000000D01*
X118550000Y-61300000D01*
X117150000Y-61300000D01*
X117150000Y-60200000D01*
X117850000Y-60200000D01*
X117850000Y-59700000D01*
X119800000Y-59700000D01*
X119800000Y-62000000D01*
G36*
X119800000Y-62000000D02*
G01*
X118550000Y-62000000D01*
X118550000Y-61300000D01*
X117150000Y-61300000D01*
X117150000Y-60200000D01*
X117850000Y-60200000D01*
X117850000Y-59700000D01*
X119800000Y-59700000D01*
X119800000Y-62000000D01*
G37*
X132150000Y-60200000D02*
X132850000Y-60200000D01*
X132850000Y-61300000D01*
X131450000Y-61300000D01*
X131450000Y-62000000D01*
X130200000Y-62000000D01*
X130200000Y-59700000D01*
X132150000Y-59700000D01*
X132150000Y-60200000D01*
G36*
X132150000Y-60200000D02*
G01*
X132850000Y-60200000D01*
X132850000Y-61300000D01*
X131450000Y-61300000D01*
X131450000Y-62000000D01*
X130200000Y-62000000D01*
X130200000Y-59700000D01*
X132150000Y-59700000D01*
X132150000Y-60200000D01*
G37*
G04 #@! TD*
D11*
G04 #@! TO.C,J2*
X120250000Y-59600000D03*
X120750000Y-59600000D03*
X121250000Y-59600000D03*
X121750000Y-59600000D03*
X122250000Y-59600000D03*
X122750000Y-59600000D03*
X123250000Y-59600000D03*
X123750000Y-59600000D03*
X124250000Y-59600000D03*
X124750000Y-59600000D03*
X125250000Y-59600000D03*
X125750000Y-59600000D03*
X126250000Y-59600000D03*
X126750000Y-59600000D03*
X127250000Y-59600000D03*
X127750000Y-59600000D03*
X128250000Y-59600000D03*
X128750000Y-59600000D03*
X129250000Y-59600000D03*
X129750000Y-59600000D03*
G04 #@! TD*
M02*
