G04 #@! TF.GenerationSoftware,KiCad,Pcbnew,10.0.3*
G04 #@! TF.CreationDate,2026-06-09T10:27:32-05:00*
G04 #@! TF.ProjectId,Virgil Screen,56697267-696c-4205-9363-7265656e2e6b,rev?*
G04 #@! TF.SameCoordinates,Original*
G04 #@! TF.FileFunction,Paste,Top*
G04 #@! TF.FilePolarity,Positive*
%FSLAX46Y46*%
G04 Gerber Fmt 4.6, Leading zero omitted, Abs format (unit mm)*
G04 Created by KiCad (PCBNEW 10.0.3) date 2026-06-09 10:27:32*
%MOMM*%
%LPD*%
G01*
G04 APERTURE LIST*
G04 Aperture macros list*
%AMRoundRect*
0 Rectangle with rounded corners*
0 $1 Rounding radius*
0 $2 $3 $4 $5 $6 $7 $8 $9 X,Y pos of 4 corners*
0 Add a 4 corners polygon primitive as box body*
4,1,4,$2,$3,$4,$5,$6,$7,$8,$9,$2,$3,0*
0 Add four circle primitives for the rounded corners*
1,1,$1+$1,$2,$3*
1,1,$1+$1,$4,$5*
1,1,$1+$1,$6,$7*
1,1,$1+$1,$8,$9*
0 Add four rect primitives between the rounded corners*
20,1,$1+$1,$2,$3,$4,$5,0*
20,1,$1+$1,$4,$5,$6,$7,0*
20,1,$1+$1,$6,$7,$8,$9,0*
20,1,$1+$1,$8,$9,$2,$3,0*%
G04 Aperture macros list end*
%ADD10C,0.010000*%
%ADD11R,1.600000X0.850000*%
%ADD12RoundRect,0.150000X-0.150000X0.512500X-0.150000X-0.512500X0.150000X-0.512500X0.150000X0.512500X0*%
%ADD13RoundRect,0.045000X0.105000X0.580000X-0.105000X0.580000X-0.105000X-0.580000X0.105000X-0.580000X0*%
%ADD14RoundRect,0.300000X0.700000X1.200000X-0.700000X1.200000X-0.700000X-1.200000X0.700000X-1.200000X0*%
%ADD15R,0.300000X1.400000*%
%ADD16RoundRect,0.150000X0.150000X-0.587500X0.150000X0.587500X-0.150000X0.587500X-0.150000X-0.587500X0*%
G04 APERTURE END LIST*
D10*
G04 #@! TO.C,J2*
X119800000Y-71300000D02*
X119800000Y-69000000D01*
X118550000Y-69000000D01*
X118550000Y-69700000D01*
X117150000Y-69700000D01*
X117150000Y-70800000D01*
X117850000Y-70800000D01*
X117850000Y-71300000D01*
X119800000Y-71300000D01*
G36*
X119800000Y-71300000D02*
G01*
X117850000Y-71300000D01*
X117850000Y-70800000D01*
X117150000Y-70800000D01*
X117150000Y-69700000D01*
X118550000Y-69700000D01*
X118550000Y-69000000D01*
X119800000Y-69000000D01*
X119800000Y-71300000D01*
G37*
X132850000Y-70800000D02*
X132850000Y-69700000D01*
X131450000Y-69700000D01*
X131450000Y-69000000D01*
X130200000Y-69000000D01*
X130200000Y-71300000D01*
X132150000Y-71300000D01*
X132150000Y-70800000D01*
X132850000Y-70800000D01*
G36*
X131450000Y-69700000D02*
G01*
X132850000Y-69700000D01*
X132850000Y-70800000D01*
X132150000Y-70800000D01*
X132150000Y-71300000D01*
X130200000Y-71300000D01*
X130200000Y-69000000D01*
X131450000Y-69000000D01*
X131450000Y-69700000D01*
G37*
G04 #@! TD*
D11*
G04 #@! TO.C,D2*
X126750000Y-132875000D03*
X126750000Y-131125000D03*
X123250000Y-131125000D03*
X123250000Y-132875000D03*
G04 #@! TD*
D12*
G04 #@! TO.C,U3*
X133050000Y-86862500D03*
X132100000Y-86862500D03*
X131150000Y-86862500D03*
X131150000Y-89137500D03*
X132100000Y-89137500D03*
X133050000Y-89137500D03*
G04 #@! TD*
D11*
G04 #@! TO.C,D1*
X123250000Y-95125000D03*
X123250000Y-96875000D03*
X126750000Y-96875000D03*
X126750000Y-95125000D03*
G04 #@! TD*
D13*
G04 #@! TO.C,U4*
X123250000Y-91300000D03*
X123750000Y-91300000D03*
X124250000Y-91300000D03*
X124750000Y-91300000D03*
X125250000Y-91300000D03*
X125750000Y-91300000D03*
X126250000Y-91300000D03*
X126750000Y-91300000D03*
D14*
X128150000Y-89050000D03*
X121850000Y-89050000D03*
G04 #@! TD*
D15*
G04 #@! TO.C,J2*
X129750000Y-71400000D03*
X129250000Y-71400000D03*
X128750000Y-71400000D03*
X128250000Y-71400000D03*
X127750000Y-71400000D03*
X127250000Y-71400000D03*
X126750000Y-71400000D03*
X126250000Y-71400000D03*
X125750000Y-71400000D03*
X125250000Y-71400000D03*
X124750000Y-71400000D03*
X124250000Y-71400000D03*
X123750000Y-71400000D03*
X123250000Y-71400000D03*
X122750000Y-71400000D03*
X122250000Y-71400000D03*
X121750000Y-71400000D03*
X121250000Y-71400000D03*
X120750000Y-71400000D03*
X120250000Y-71400000D03*
G04 #@! TD*
D16*
G04 #@! TO.C,Q1*
X121050000Y-84937500D03*
X122950000Y-84937500D03*
X122000000Y-83062500D03*
G04 #@! TD*
M02*
