G04 #@! TF.GenerationSoftware,KiCad,Pcbnew,9.0.8*
G04 #@! TF.CreationDate,2026-06-05T22:13:04-05:00*
G04 #@! TF.ProjectId,Virgil Backplane,56697267-696c-4204-9261-636b706c616e,rev?*
G04 #@! TF.SameCoordinates,Original*
G04 #@! TF.FileFunction,Paste,Top*
G04 #@! TF.FilePolarity,Positive*
%FSLAX46Y46*%
G04 Gerber Fmt 4.6, Leading zero omitted, Abs format (unit mm)*
G04 Created by KiCad (PCBNEW 9.0.8) date 2026-06-05 22:13:04*
%MOMM*%
%LPD*%
G01*
G04 APERTURE LIST*
G04 Aperture macros list*
%AMRoundRect*
0 Rectangle with rounded corners*
0 $1 Rounding radius*
0 $2 $3 $4 $5 $6 $7 $8 $9 X,Y pos of 4 corners*
0 Add a 4 corners polygon primitive as box body*
4,1,4,$2,$3,$4,$5,$6,$7,$8,$9,$2,$3,0*
0 Add four circle primitives for the rounded corners*
1,1,$1+$1,$2,$3*
1,1,$1+$1,$4,$5*
1,1,$1+$1,$6,$7*
1,1,$1+$1,$8,$9*
0 Add four rect primitives between the rounded corners*
20,1,$1+$1,$2,$3,$4,$5,0*
20,1,$1+$1,$4,$5,$6,$7,0*
20,1,$1+$1,$6,$7,$8,$9,0*
20,1,$1+$1,$8,$9,$2,$3,0*%
G04 Aperture macros list end*
%ADD10RoundRect,0.100000X-0.850000X-0.100000X0.850000X-0.100000X0.850000X0.100000X-0.850000X0.100000X0*%
%ADD11RoundRect,0.050000X0.545000X0.150000X-0.545000X0.150000X-0.545000X-0.150000X0.545000X-0.150000X0*%
%ADD12RoundRect,0.050000X-0.545000X-0.150000X0.545000X-0.150000X0.545000X0.150000X-0.545000X0.150000X0*%
%ADD13R,0.558800X2.108200*%
%ADD14RoundRect,0.150000X0.150000X-0.875000X0.150000X0.875000X-0.150000X0.875000X-0.150000X-0.875000X0*%
G04 APERTURE END LIST*
D10*
G04 #@! TO.C,U2*
X123500000Y-84775000D03*
X123500000Y-85425000D03*
X123500000Y-86075000D03*
X123500000Y-86725000D03*
X123500000Y-87375000D03*
X123500000Y-88025000D03*
X123500000Y-88675000D03*
X123500000Y-89325000D03*
X123500000Y-89975000D03*
X123500000Y-90625000D03*
X123500000Y-91275000D03*
X123500000Y-91925000D03*
X123500000Y-92575000D03*
X123500000Y-93225000D03*
X130500000Y-93225000D03*
X130500000Y-92575000D03*
X130500000Y-91925000D03*
X130500000Y-91275000D03*
X130500000Y-90625000D03*
X130500000Y-89975000D03*
X130500000Y-89325000D03*
X130500000Y-88675000D03*
X130500000Y-88025000D03*
X130500000Y-87375000D03*
X130500000Y-86725000D03*
X130500000Y-86075000D03*
X130500000Y-85425000D03*
X130500000Y-84775000D03*
G04 #@! TD*
D11*
G04 #@! TO.C,U21*
X64960000Y-102650000D03*
X64960000Y-102000000D03*
X64960000Y-101350000D03*
X63040000Y-101350000D03*
X63040000Y-102650000D03*
G04 #@! TD*
D10*
G04 #@! TO.C,U1*
X142500000Y-84775000D03*
X142500000Y-85425000D03*
X142500000Y-86075000D03*
X142500000Y-86725000D03*
X142500000Y-87375000D03*
X142500000Y-88025000D03*
X142500000Y-88675000D03*
X142500000Y-89325000D03*
X142500000Y-89975000D03*
X142500000Y-90625000D03*
X142500000Y-91275000D03*
X142500000Y-91925000D03*
X142500000Y-92575000D03*
X142500000Y-93225000D03*
X149500000Y-93225000D03*
X149500000Y-92575000D03*
X149500000Y-91925000D03*
X149500000Y-91275000D03*
X149500000Y-90625000D03*
X149500000Y-89975000D03*
X149500000Y-89325000D03*
X149500000Y-88675000D03*
X149500000Y-88025000D03*
X149500000Y-87375000D03*
X149500000Y-86725000D03*
X149500000Y-86075000D03*
X149500000Y-85425000D03*
X149500000Y-84775000D03*
G04 #@! TD*
D12*
G04 #@! TO.C,U33*
X197040000Y-75350000D03*
X197040000Y-76000000D03*
X197040000Y-76650000D03*
X198960000Y-76650000D03*
X198960000Y-75350000D03*
G04 #@! TD*
D13*
G04 #@! TO.C,J5*
X127599999Y-109095300D03*
X128400000Y-109095300D03*
X129199999Y-109095300D03*
X129999999Y-109095300D03*
X130799998Y-109095300D03*
X131599999Y-109095300D03*
X132399997Y-109095300D03*
X133199998Y-109095300D03*
X133999999Y-109095300D03*
X134799997Y-109095300D03*
X134400044Y-100895299D03*
X133600043Y-100895299D03*
X132800045Y-100895299D03*
X132000044Y-100895299D03*
X131200045Y-100895299D03*
X130400044Y-100895299D03*
X129600043Y-100895299D03*
X128800045Y-100895299D03*
X128000044Y-100895299D03*
X127200046Y-100895299D03*
G04 #@! TD*
G04 #@! TO.C,J14*
X162400001Y-68904700D03*
X161600000Y-68904700D03*
X160800001Y-68904700D03*
X160000001Y-68904700D03*
X159200002Y-68904700D03*
X158400001Y-68904700D03*
X157600003Y-68904700D03*
X156800002Y-68904700D03*
X156000001Y-68904700D03*
X155200003Y-68904700D03*
X155599956Y-77104701D03*
X156399957Y-77104701D03*
X157199955Y-77104701D03*
X157999956Y-77104701D03*
X158799955Y-77104701D03*
X159599956Y-77104701D03*
X160399957Y-77104701D03*
X161199955Y-77104701D03*
X161999956Y-77104701D03*
X162799954Y-77104701D03*
G04 #@! TD*
D14*
G04 #@! TO.C,U5*
X85015000Y-93650000D03*
X86285000Y-93650000D03*
X87555000Y-93650000D03*
X88825000Y-93650000D03*
X90095000Y-93650000D03*
X91365000Y-93650000D03*
X92635000Y-93650000D03*
X93905000Y-93650000D03*
X95175000Y-93650000D03*
X96445000Y-93650000D03*
X97715000Y-93650000D03*
X98985000Y-93650000D03*
X98985000Y-84350000D03*
X97715000Y-84350000D03*
X96445000Y-84350000D03*
X95175000Y-84350000D03*
X93905000Y-84350000D03*
X92635000Y-84350000D03*
X91365000Y-84350000D03*
X90095000Y-84350000D03*
X88825000Y-84350000D03*
X87555000Y-84350000D03*
X86285000Y-84350000D03*
X85015000Y-84350000D03*
G04 #@! TD*
D13*
G04 #@! TO.C,J10*
X50400001Y-68904700D03*
X49600000Y-68904700D03*
X48800001Y-68904700D03*
X48000001Y-68904700D03*
X47200002Y-68904700D03*
X46400001Y-68904700D03*
X45600003Y-68904700D03*
X44800002Y-68904700D03*
X44000001Y-68904700D03*
X43200003Y-68904700D03*
X43599956Y-77104701D03*
X44399957Y-77104701D03*
X45199955Y-77104701D03*
X45999956Y-77104701D03*
X46799955Y-77104701D03*
X47599956Y-77104701D03*
X48399957Y-77104701D03*
X49199955Y-77104701D03*
X49999956Y-77104701D03*
X50799954Y-77104701D03*
G04 #@! TD*
D12*
G04 #@! TO.C,U29*
X85040000Y-75350000D03*
X85040000Y-76000000D03*
X85040000Y-76650000D03*
X86960000Y-76650000D03*
X86960000Y-75350000D03*
G04 #@! TD*
G04 #@! TO.C,U32*
X169040000Y-75350000D03*
X169040000Y-76000000D03*
X169040000Y-76650000D03*
X170960000Y-76650000D03*
X170960000Y-75350000D03*
G04 #@! TD*
G04 #@! TO.C,U30*
X113040000Y-75350000D03*
X113040000Y-76000000D03*
X113040000Y-76650000D03*
X114960000Y-76650000D03*
X114960000Y-75350000D03*
G04 #@! TD*
D13*
G04 #@! TO.C,J4*
X99599999Y-109095300D03*
X100400000Y-109095300D03*
X101199999Y-109095300D03*
X101999999Y-109095300D03*
X102799998Y-109095300D03*
X103599999Y-109095300D03*
X104399997Y-109095300D03*
X105199998Y-109095300D03*
X105999999Y-109095300D03*
X106799997Y-109095300D03*
X106400044Y-100895299D03*
X105600043Y-100895299D03*
X104800045Y-100895299D03*
X104000044Y-100895299D03*
X103200045Y-100895299D03*
X102400044Y-100895299D03*
X101600043Y-100895299D03*
X100800045Y-100895299D03*
X100000044Y-100895299D03*
X99200046Y-100895299D03*
G04 #@! TD*
G04 #@! TO.C,J8*
X211599999Y-109095300D03*
X212400000Y-109095300D03*
X213199999Y-109095300D03*
X213999999Y-109095300D03*
X214799998Y-109095300D03*
X215599999Y-109095300D03*
X216399997Y-109095300D03*
X217199998Y-109095300D03*
X217999999Y-109095300D03*
X218799997Y-109095300D03*
X218400044Y-100895299D03*
X217600043Y-100895299D03*
X216800045Y-100895299D03*
X216000044Y-100895299D03*
X215200045Y-100895299D03*
X214400044Y-100895299D03*
X213600043Y-100895299D03*
X212800045Y-100895299D03*
X212000044Y-100895299D03*
X211200046Y-100895299D03*
G04 #@! TD*
G04 #@! TO.C,J15*
X190400001Y-68904700D03*
X189600000Y-68904700D03*
X188800001Y-68904700D03*
X188000001Y-68904700D03*
X187200002Y-68904700D03*
X186400001Y-68904700D03*
X185600003Y-68904700D03*
X184800002Y-68904700D03*
X184000001Y-68904700D03*
X183200003Y-68904700D03*
X183599956Y-77104701D03*
X184399957Y-77104701D03*
X185199955Y-77104701D03*
X185999956Y-77104701D03*
X186799955Y-77104701D03*
X187599956Y-77104701D03*
X188399957Y-77104701D03*
X189199955Y-77104701D03*
X189999956Y-77104701D03*
X190799954Y-77104701D03*
G04 #@! TD*
G04 #@! TO.C,J16*
X218400001Y-68904700D03*
X217600000Y-68904700D03*
X216800001Y-68904700D03*
X216000001Y-68904700D03*
X215200002Y-68904700D03*
X214400001Y-68904700D03*
X213600003Y-68904700D03*
X212800002Y-68904700D03*
X212000001Y-68904700D03*
X211200003Y-68904700D03*
X211599956Y-77104701D03*
X212399957Y-77104701D03*
X213199955Y-77104701D03*
X213999956Y-77104701D03*
X214799955Y-77104701D03*
X215599956Y-77104701D03*
X216399957Y-77104701D03*
X217199955Y-77104701D03*
X217999956Y-77104701D03*
X218799954Y-77104701D03*
G04 #@! TD*
G04 #@! TO.C,J11*
X78400001Y-68904700D03*
X77600000Y-68904700D03*
X76800001Y-68904700D03*
X76000001Y-68904700D03*
X75200002Y-68904700D03*
X74400001Y-68904700D03*
X73600003Y-68904700D03*
X72800002Y-68904700D03*
X72000001Y-68904700D03*
X71200003Y-68904700D03*
X71599956Y-77104701D03*
X72399957Y-77104701D03*
X73199955Y-77104701D03*
X73999956Y-77104701D03*
X74799955Y-77104701D03*
X75599956Y-77104701D03*
X76399957Y-77104701D03*
X77199955Y-77104701D03*
X77999956Y-77104701D03*
X78799954Y-77104701D03*
G04 #@! TD*
G04 #@! TO.C,J12*
X106400001Y-68904700D03*
X105600000Y-68904700D03*
X104800001Y-68904700D03*
X104000001Y-68904700D03*
X103200002Y-68904700D03*
X102400001Y-68904700D03*
X101600003Y-68904700D03*
X100800002Y-68904700D03*
X100000001Y-68904700D03*
X99200003Y-68904700D03*
X99599956Y-77104701D03*
X100399957Y-77104701D03*
X101199955Y-77104701D03*
X101999956Y-77104701D03*
X102799955Y-77104701D03*
X103599956Y-77104701D03*
X104399957Y-77104701D03*
X105199955Y-77104701D03*
X105999956Y-77104701D03*
X106799954Y-77104701D03*
G04 #@! TD*
D11*
G04 #@! TO.C,U23*
X120960000Y-102650000D03*
X120960000Y-102000000D03*
X120960000Y-101350000D03*
X119040000Y-101350000D03*
X119040000Y-102650000D03*
G04 #@! TD*
D12*
G04 #@! TO.C,U34*
X225040000Y-75350000D03*
X225040000Y-76000000D03*
X225040000Y-76650000D03*
X226960000Y-76650000D03*
X226960000Y-75350000D03*
G04 #@! TD*
D13*
G04 #@! TO.C,J3*
X71599999Y-109095300D03*
X72400000Y-109095300D03*
X73199999Y-109095300D03*
X73999999Y-109095300D03*
X74799998Y-109095300D03*
X75599999Y-109095300D03*
X76399997Y-109095300D03*
X77199998Y-109095300D03*
X77999999Y-109095300D03*
X78799997Y-109095300D03*
X78400044Y-100895299D03*
X77600043Y-100895299D03*
X76800045Y-100895299D03*
X76000044Y-100895299D03*
X75200045Y-100895299D03*
X74400044Y-100895299D03*
X73600043Y-100895299D03*
X72800045Y-100895299D03*
X72000044Y-100895299D03*
X71200046Y-100895299D03*
G04 #@! TD*
G04 #@! TO.C,J17*
X246400001Y-68904700D03*
X245600000Y-68904700D03*
X244800001Y-68904700D03*
X244000001Y-68904700D03*
X243200002Y-68904700D03*
X242400001Y-68904700D03*
X241600003Y-68904700D03*
X240800002Y-68904700D03*
X240000001Y-68904700D03*
X239200003Y-68904700D03*
X239599956Y-77104701D03*
X240399957Y-77104701D03*
X241199955Y-77104701D03*
X241999956Y-77104701D03*
X242799955Y-77104701D03*
X243599956Y-77104701D03*
X244399957Y-77104701D03*
X245199955Y-77104701D03*
X245999956Y-77104701D03*
X246799954Y-77104701D03*
G04 #@! TD*
D12*
G04 #@! TO.C,U31*
X141040000Y-75350000D03*
X141040000Y-76000000D03*
X141040000Y-76650000D03*
X142960000Y-76650000D03*
X142960000Y-75350000D03*
G04 #@! TD*
D11*
G04 #@! TO.C,U35*
X232960000Y-76650000D03*
X232960000Y-76000000D03*
X232960000Y-75350000D03*
X231040000Y-75350000D03*
X231040000Y-76650000D03*
G04 #@! TD*
G04 #@! TO.C,U26*
X204960000Y-102650000D03*
X204960000Y-102000000D03*
X204960000Y-101350000D03*
X203040000Y-101350000D03*
X203040000Y-102650000D03*
G04 #@! TD*
D12*
G04 #@! TO.C,U20*
X57040000Y-101350000D03*
X57040000Y-102000000D03*
X57040000Y-102650000D03*
X58960000Y-102650000D03*
X58960000Y-101350000D03*
G04 #@! TD*
D13*
G04 #@! TO.C,J6*
X155599999Y-109095300D03*
X156400000Y-109095300D03*
X157199999Y-109095300D03*
X157999999Y-109095300D03*
X158799998Y-109095300D03*
X159599999Y-109095300D03*
X160399997Y-109095300D03*
X161199998Y-109095300D03*
X161999999Y-109095300D03*
X162799997Y-109095300D03*
X162400044Y-100895299D03*
X161600043Y-100895299D03*
X160800045Y-100895299D03*
X160000044Y-100895299D03*
X159200045Y-100895299D03*
X158400044Y-100895299D03*
X157600043Y-100895299D03*
X156800045Y-100895299D03*
X156000044Y-100895299D03*
X155200046Y-100895299D03*
G04 #@! TD*
D11*
G04 #@! TO.C,U22*
X92960000Y-102650000D03*
X92960000Y-102000000D03*
X92960000Y-101350000D03*
X91040000Y-101350000D03*
X91040000Y-102650000D03*
G04 #@! TD*
G04 #@! TO.C,U24*
X148960000Y-102650000D03*
X148960000Y-102000000D03*
X148960000Y-101350000D03*
X147040000Y-101350000D03*
X147040000Y-102650000D03*
G04 #@! TD*
D12*
G04 #@! TO.C,U28*
X57040000Y-75350000D03*
X57040000Y-76000000D03*
X57040000Y-76650000D03*
X58960000Y-76650000D03*
X58960000Y-75350000D03*
G04 #@! TD*
D13*
G04 #@! TO.C,J13*
X134400001Y-68904700D03*
X133600000Y-68904700D03*
X132800001Y-68904700D03*
X132000001Y-68904700D03*
X131200002Y-68904700D03*
X130400001Y-68904700D03*
X129600003Y-68904700D03*
X128800002Y-68904700D03*
X128000001Y-68904700D03*
X127200003Y-68904700D03*
X127599956Y-77104701D03*
X128399957Y-77104701D03*
X129199955Y-77104701D03*
X129999956Y-77104701D03*
X130799955Y-77104701D03*
X131599956Y-77104701D03*
X132399957Y-77104701D03*
X133199955Y-77104701D03*
X133999956Y-77104701D03*
X134799954Y-77104701D03*
G04 #@! TD*
G04 #@! TO.C,J7*
X183599999Y-109095300D03*
X184400000Y-109095300D03*
X185199999Y-109095300D03*
X185999999Y-109095300D03*
X186799998Y-109095300D03*
X187599999Y-109095300D03*
X188399997Y-109095300D03*
X189199998Y-109095300D03*
X189999999Y-109095300D03*
X190799997Y-109095300D03*
X190400044Y-100895299D03*
X189600043Y-100895299D03*
X188800045Y-100895299D03*
X188000044Y-100895299D03*
X187200045Y-100895299D03*
X186400044Y-100895299D03*
X185600043Y-100895299D03*
X184800045Y-100895299D03*
X184000044Y-100895299D03*
X183200046Y-100895299D03*
G04 #@! TD*
D11*
G04 #@! TO.C,U27*
X232960000Y-102650000D03*
X232960000Y-102000000D03*
X232960000Y-101350000D03*
X231040000Y-101350000D03*
X231040000Y-102650000D03*
G04 #@! TD*
D13*
G04 #@! TO.C,J2*
X43599999Y-109095300D03*
X44400000Y-109095300D03*
X45199999Y-109095300D03*
X45999999Y-109095300D03*
X46799998Y-109095300D03*
X47599999Y-109095300D03*
X48399997Y-109095300D03*
X49199998Y-109095300D03*
X49999999Y-109095300D03*
X50799997Y-109095300D03*
X50400044Y-100895299D03*
X49600043Y-100895299D03*
X48800045Y-100895299D03*
X48000044Y-100895299D03*
X47200045Y-100895299D03*
X46400044Y-100895299D03*
X45600043Y-100895299D03*
X44800045Y-100895299D03*
X44000044Y-100895299D03*
X43200046Y-100895299D03*
G04 #@! TD*
G04 #@! TO.C,J9*
X239599999Y-109095300D03*
X240400000Y-109095300D03*
X241199999Y-109095300D03*
X241999999Y-109095300D03*
X242799998Y-109095300D03*
X243599999Y-109095300D03*
X244399997Y-109095300D03*
X245199998Y-109095300D03*
X245999999Y-109095300D03*
X246799997Y-109095300D03*
X246400044Y-100895299D03*
X245600043Y-100895299D03*
X244800045Y-100895299D03*
X244000044Y-100895299D03*
X243200045Y-100895299D03*
X242400044Y-100895299D03*
X241600043Y-100895299D03*
X240800045Y-100895299D03*
X240000044Y-100895299D03*
X239200046Y-100895299D03*
G04 #@! TD*
D11*
G04 #@! TO.C,U25*
X176960000Y-102650000D03*
X176960000Y-102000000D03*
X176960000Y-101350000D03*
X175040000Y-101350000D03*
X175040000Y-102650000D03*
G04 #@! TD*
M02*
