G04 #@! TF.GenerationSoftware,KiCad,Pcbnew,9.0.8*
G04 #@! TF.CreationDate,2026-06-05T22:09:40-05:00*
G04 #@! TF.ProjectId,Virgil Power,56697267-696c-4205-906f-7765722e6b69,rev?*
G04 #@! TF.SameCoordinates,Original*
G04 #@! TF.FileFunction,Paste,Top*
G04 #@! TF.FilePolarity,Positive*
%FSLAX46Y46*%
G04 Gerber Fmt 4.6, Leading zero omitted, Abs format (unit mm)*
G04 Created by KiCad (PCBNEW 9.0.8) date 2026-06-05 22:09:40*
%MOMM*%
%LPD*%
G01*
G04 APERTURE LIST*
G04 Aperture macros list*
%AMRoundRect*
0 Rectangle with rounded corners*
0 $1 Rounding radius*
0 $2 $3 $4 $5 $6 $7 $8 $9 X,Y pos of 4 corners*
0 Add a 4 corners polygon primitive as box body*
4,1,4,$2,$3,$4,$5,$6,$7,$8,$9,$2,$3,0*
0 Add four circle primitives for the rounded corners*
1,1,$1+$1,$2,$3*
1,1,$1+$1,$4,$5*
1,1,$1+$1,$6,$7*
1,1,$1+$1,$8,$9*
0 Add four rect primitives between the rounded corners*
20,1,$1+$1,$2,$3,$4,$5,0*
20,1,$1+$1,$4,$5,$6,$7,0*
20,1,$1+$1,$6,$7,$8,$9,0*
20,1,$1+$1,$8,$9,$2,$3,0*%
G04 Aperture macros list end*
%ADD10RoundRect,0.250000X-0.650000X0.325000X-0.650000X-0.325000X0.650000X-0.325000X0.650000X0.325000X0*%
%ADD11RoundRect,0.200000X-0.275000X0.200000X-0.275000X-0.200000X0.275000X-0.200000X0.275000X0.200000X0*%
%ADD12RoundRect,0.050000X0.100000X-0.285000X0.100000X0.285000X-0.100000X0.285000X-0.100000X-0.285000X0*%
%ADD13RoundRect,0.250000X0.325000X0.650000X-0.325000X0.650000X-0.325000X-0.650000X0.325000X-0.650000X0*%
%ADD14RoundRect,0.075000X0.650000X0.075000X-0.650000X0.075000X-0.650000X-0.075000X0.650000X-0.075000X0*%
%ADD15RoundRect,0.225000X-0.225000X-0.250000X0.225000X-0.250000X0.225000X0.250000X-0.225000X0.250000X0*%
%ADD16RoundRect,0.250000X-0.362500X-1.425000X0.362500X-1.425000X0.362500X1.425000X-0.362500X1.425000X0*%
%ADD17R,0.640000X2.000000*%
%ADD18RoundRect,0.250000X-0.325000X-0.650000X0.325000X-0.650000X0.325000X0.650000X-0.325000X0.650000X0*%
%ADD19R,2.819400X2.946400*%
%ADD20R,1.830000X5.000000*%
%ADD21RoundRect,0.100000X0.100000X-0.712500X0.100000X0.712500X-0.100000X0.712500X-0.100000X-0.712500X0*%
%ADD22RoundRect,0.250000X1.275000X1.125000X-1.275000X1.125000X-1.275000X-1.125000X1.275000X-1.125000X0*%
%ADD23RoundRect,0.200000X0.900000X0.200000X-0.900000X0.200000X-0.900000X-0.200000X0.900000X-0.200000X0*%
%ADD24RoundRect,0.225000X0.225000X0.250000X-0.225000X0.250000X-0.225000X-0.250000X0.225000X-0.250000X0*%
%ADD25RoundRect,0.250000X-0.362500X-1.075000X0.362500X-1.075000X0.362500X1.075000X-0.362500X1.075000X0*%
%ADD26RoundRect,0.500000X0.500000X-0.875000X0.500000X0.875000X-0.500000X0.875000X-0.500000X-0.875000X0*%
%ADD27C,1.700000*%
%ADD28RoundRect,0.275000X-0.975000X-0.275000X0.975000X-0.275000X0.975000X0.275000X-0.975000X0.275000X0*%
%ADD29RoundRect,0.200000X-0.200000X-0.275000X0.200000X-0.275000X0.200000X0.275000X-0.200000X0.275000X0*%
%ADD30RoundRect,0.200000X0.200000X0.275000X-0.200000X0.275000X-0.200000X-0.275000X0.200000X-0.275000X0*%
G04 APERTURE END LIST*
D10*
G04 #@! TO.C,C9*
X172262500Y-136325000D03*
X172262500Y-139275000D03*
G04 #@! TD*
D11*
G04 #@! TO.C,R2*
X156930400Y-87025000D03*
X156930400Y-88675000D03*
G04 #@! TD*
D12*
G04 #@! TO.C,U4*
X159080400Y-91700000D03*
X159580400Y-91700000D03*
X160080400Y-91700000D03*
X160580400Y-91700000D03*
X160580400Y-90220000D03*
X160080400Y-90220000D03*
X159580400Y-90220000D03*
X159080400Y-90220000D03*
G04 #@! TD*
D10*
G04 #@! TO.C,C7*
X164812500Y-136325000D03*
X164812500Y-139275000D03*
G04 #@! TD*
G04 #@! TO.C,C20*
X180400000Y-93675000D03*
X180400000Y-96625000D03*
G04 #@! TD*
D13*
G04 #@! TO.C,C24*
X137275000Y-85700000D03*
X134325000Y-85700000D03*
G04 #@! TD*
D11*
G04 #@! TO.C,R3*
X148169600Y-111450000D03*
X148169600Y-113100000D03*
G04 #@! TD*
D14*
G04 #@! TO.C,U12*
X141100000Y-93400000D03*
X141100000Y-92900000D03*
X141100000Y-92400000D03*
X141100000Y-91900000D03*
X141100000Y-91400000D03*
X136700000Y-91400000D03*
X136700000Y-91900000D03*
X136700000Y-92400000D03*
X136700000Y-92900000D03*
X136700000Y-93400000D03*
G04 #@! TD*
D10*
G04 #@! TO.C,C14*
X164800000Y-114725000D03*
X164800000Y-117675000D03*
G04 #@! TD*
D15*
G04 #@! TO.C,C5*
X152937500Y-136200000D03*
X154487500Y-136200000D03*
G04 #@! TD*
G04 #@! TO.C,C15*
X149794600Y-109450000D03*
X151344600Y-109450000D03*
G04 #@! TD*
D16*
G04 #@! TO.C,R11*
X167800000Y-133100000D03*
X173725000Y-133100000D03*
G04 #@! TD*
D11*
G04 #@! TO.C,R1*
X150262500Y-129900000D03*
X150262500Y-131550000D03*
G04 #@! TD*
D17*
G04 #@! TO.C,U9*
X154270000Y-81850000D03*
X151730000Y-81850000D03*
X151730000Y-88150000D03*
X154270000Y-88150000D03*
G04 #@! TD*
D18*
G04 #@! TO.C,C1*
X149094600Y-116450000D03*
X152044600Y-116450000D03*
G04 #@! TD*
D17*
G04 #@! TO.C,U11*
X149270000Y-81850000D03*
X146730000Y-81850000D03*
X146730000Y-88150000D03*
X149270000Y-88150000D03*
G04 #@! TD*
D12*
G04 #@! TO.C,U1*
X151962500Y-134480000D03*
X152462500Y-134480000D03*
X152962500Y-134480000D03*
X153462500Y-134480000D03*
X153462500Y-133000000D03*
X152962500Y-133000000D03*
X152462500Y-133000000D03*
X151962500Y-133000000D03*
G04 #@! TD*
D19*
G04 #@! TO.C,L1*
X155942900Y-129800000D03*
X164782100Y-129800000D03*
G04 #@! TD*
D14*
G04 #@! TO.C,U3*
X172919600Y-108200000D03*
X172919600Y-107700000D03*
X172919600Y-107200000D03*
X172919600Y-106700000D03*
X172919600Y-106200000D03*
X168519600Y-106200000D03*
X168519600Y-106700000D03*
X168519600Y-107200000D03*
X168519600Y-107700000D03*
X168519600Y-108200000D03*
G04 #@! TD*
D12*
G04 #@! TO.C,U2*
X149869600Y-112940000D03*
X150369600Y-112940000D03*
X150869600Y-112940000D03*
X151369600Y-112940000D03*
X151369600Y-111460000D03*
X150869600Y-111460000D03*
X150369600Y-111460000D03*
X149869600Y-111460000D03*
G04 #@! TD*
D18*
G04 #@! TO.C,C18*
X158405400Y-95400000D03*
X161355400Y-95400000D03*
G04 #@! TD*
D10*
G04 #@! TO.C,C16*
X169812500Y-136325000D03*
X169812500Y-139275000D03*
G04 #@! TD*
G04 #@! TO.C,C10*
X167400000Y-114725000D03*
X167400000Y-117675000D03*
G04 #@! TD*
G04 #@! TO.C,C21*
X175400000Y-93675000D03*
X175400000Y-96625000D03*
G04 #@! TD*
D15*
G04 #@! TO.C,C3*
X151912500Y-131100000D03*
X153462500Y-131100000D03*
G04 #@! TD*
D18*
G04 #@! TO.C,C4*
X151437500Y-138200000D03*
X154387500Y-138200000D03*
G04 #@! TD*
D19*
G04 #@! TO.C,L2*
X153900000Y-108200000D03*
X162739200Y-108200000D03*
G04 #@! TD*
D20*
G04 #@! TO.C,U5*
X169580000Y-54220000D03*
X167120000Y-54220000D03*
X164660000Y-54220000D03*
X132420000Y-54220000D03*
X132420000Y-75780000D03*
X134880000Y-75780000D03*
X169580000Y-75780000D03*
G04 #@! TD*
D10*
G04 #@! TO.C,C6*
X167312500Y-136325000D03*
X167312500Y-139275000D03*
G04 #@! TD*
G04 #@! TO.C,C27*
X177900000Y-93675000D03*
X177900000Y-96625000D03*
G04 #@! TD*
D21*
G04 #@! TO.C,U7*
X144494600Y-114062500D03*
X145144600Y-114062500D03*
X145794600Y-114062500D03*
X146444600Y-114062500D03*
X146444600Y-109837500D03*
X145794600Y-109837500D03*
X145144600Y-109837500D03*
X144494600Y-109837500D03*
G04 #@! TD*
D11*
G04 #@! TO.C,R7*
X150262500Y-133025000D03*
X150262500Y-134675000D03*
G04 #@! TD*
D16*
G04 #@! TO.C,R10*
X165744600Y-111450000D03*
X171669600Y-111450000D03*
G04 #@! TD*
G04 #@! TO.C,R13*
X133937500Y-96400000D03*
X139862500Y-96400000D03*
G04 #@! TD*
D15*
G04 #@! TO.C,C17*
X159555400Y-88000000D03*
X161105400Y-88000000D03*
G04 #@! TD*
D10*
G04 #@! TO.C,C12*
X170000000Y-114725000D03*
X170000000Y-117675000D03*
G04 #@! TD*
D22*
G04 #@! TO.C,U13*
X179575000Y-112585000D03*
X179575000Y-109535000D03*
X176225000Y-112585000D03*
X176225000Y-109535000D03*
D23*
X184200000Y-113340000D03*
X184200000Y-112200000D03*
X184200000Y-109920000D03*
X184200000Y-108780000D03*
G04 #@! TD*
D24*
G04 #@! TO.C,C25*
X135975000Y-88000000D03*
X134425000Y-88000000D03*
G04 #@! TD*
D10*
G04 #@! TO.C,C26*
X170400000Y-93675000D03*
X170400000Y-96625000D03*
G04 #@! TD*
D19*
G04 #@! TO.C,L3*
X163780400Y-87300000D03*
X172619600Y-87300000D03*
G04 #@! TD*
D14*
G04 #@! TO.C,U10*
X182230400Y-87200000D03*
X182230400Y-86700000D03*
X182230400Y-86200000D03*
X182230400Y-85700000D03*
X182230400Y-85200000D03*
X177830400Y-85200000D03*
X177830400Y-85700000D03*
X177830400Y-86200000D03*
X177830400Y-86700000D03*
X177830400Y-87200000D03*
G04 #@! TD*
D25*
G04 #@! TO.C,R12*
X175617900Y-90750000D03*
X180242900Y-90750000D03*
G04 #@! TD*
D11*
G04 #@! TO.C,R4*
X148169600Y-108325000D03*
X148169600Y-109975000D03*
G04 #@! TD*
D14*
G04 #@! TO.C,U8*
X175012500Y-130050000D03*
X175012500Y-129550000D03*
X175012500Y-129050000D03*
X175012500Y-128550000D03*
X175012500Y-128050000D03*
X170612500Y-128050000D03*
X170612500Y-128550000D03*
X170612500Y-129050000D03*
X170612500Y-129550000D03*
X170612500Y-130050000D03*
G04 #@! TD*
D10*
G04 #@! TO.C,C13*
X159700000Y-114725000D03*
X159700000Y-117675000D03*
G04 #@! TD*
D11*
G04 #@! TO.C,R5*
X197000000Y-64000000D03*
X197000000Y-65650000D03*
G04 #@! TD*
D10*
G04 #@! TO.C,C11*
X162200000Y-114725000D03*
X162200000Y-117675000D03*
G04 #@! TD*
D26*
G04 #@! TO.C,U6*
X119520000Y-138865000D03*
X122060000Y-138865000D03*
X124600000Y-138865000D03*
X127140000Y-138865000D03*
X129680000Y-138865000D03*
X132220000Y-138865000D03*
X134760000Y-138865000D03*
X134760000Y-122700000D03*
X132220000Y-122700000D03*
X129680000Y-122700000D03*
X127140000Y-122700000D03*
X124600000Y-122700000D03*
X122060000Y-122700000D03*
X119520000Y-122700000D03*
D27*
X118762000Y-131953000D03*
X118762000Y-129413000D03*
X121302000Y-131953000D03*
X121302000Y-129413000D03*
D28*
X135780000Y-131953000D03*
X135780000Y-129413000D03*
G04 #@! TD*
D10*
G04 #@! TO.C,C8*
X162312500Y-136325000D03*
X162312500Y-139275000D03*
G04 #@! TD*
D15*
G04 #@! TO.C,C19*
X159905400Y-93350000D03*
X161455400Y-93350000D03*
G04 #@! TD*
D11*
G04 #@! TO.C,R6*
X194600000Y-64000000D03*
X194600000Y-65650000D03*
G04 #@! TD*
D29*
G04 #@! TO.C,R14*
X179762500Y-118050000D03*
X181412500Y-118050000D03*
G04 #@! TD*
D15*
G04 #@! TO.C,C2*
X150594600Y-114450000D03*
X152144600Y-114450000D03*
G04 #@! TD*
D30*
G04 #@! TO.C,R9*
X148244600Y-106800000D03*
X146594600Y-106800000D03*
G04 #@! TD*
D11*
G04 #@! TO.C,R8*
X156930400Y-90200000D03*
X156930400Y-91850000D03*
G04 #@! TD*
D10*
G04 #@! TO.C,C22*
X172900000Y-93666952D03*
X172900000Y-96616952D03*
G04 #@! TD*
M02*
